<?xml version="1.0" standalone="no"?>
<!DOCTYPE svg PUBLIC "-//W3C//DTD SVG 20010904//EN"
 "http://www.w3.org/TR/2001/REC-SVG-20010904/DTD/svg10.dtd">
<svg version="1.0" xmlns="http://www.w3.org/2000/svg"
 width="194.000000pt" height="121.000000pt" viewBox="0 0 194.000000 121.000000"
 preserveAspectRatio="xMidYMid meet">
<metadata>
Created by potrace 1.16, written by Peter Selinger 2001-2019
</metadata>
<g transform="translate(0.000000,121.000000) scale(0.100000,-0.100000)"
fill="#000000" stroke="none">
<path d="M1080 979 c0 -15 -5 -20 -22 -17 -19 2 -23 -1 -20 -20 1 -17 -4 -25
-18 -29 -20 -5 -29 -33 -10 -33 6 0 10 -7 10 -15 0 -8 -4 -15 -10 -15 -18 0
-10 -28 9 -33 15 -3 18 -11 14 -27 -5 -19 -3 -21 16 -15 18 5 24 2 28 -14 5
-21 33 -30 33 -11 0 6 7 10 15 10 8 0 15 -4 15 -10 0 -19 28 -10 33 11 4 15
11 20 22 15 24 -9 38 3 24 20 -9 11 -7 15 7 21 29 10 34 25 16 39 -16 12 -16
14 3 28 20 16 20 16 -3 22 -18 5 -22 13 -20 33 3 22 -1 26 -20 23 -17 -1 -25
4 -29 18 -6 24 -7 24 -34 8 -17 -10 -23 -10 -26 0 -8 20 -33 14 -33 -9z"/>
<path d="M645 918 c0 -28 -4 -33 -34 -42 -24 -7 -36 -7 -38 1 -2 5 -10 18 -17
28 -12 17 -14 17 -44 -1 -36 -21 -39 -30 -17 -60 13 -19 12 -23 -10 -44 -23
-21 -36 -22 -76 -6 -11 5 -20 -4 -32 -29 l-17 -35 31 -16 c20 -10 29 -20 25
-30 -3 -9 -6 -24 -6 -35 0 -15 -7 -19 -35 -19 -35 0 -35 -1 -35 -43 0 -43 0
-43 34 -39 28 3 34 0 38 -20 3 -12 8 -30 12 -39 5 -12 -1 -20 -24 -29 -17 -7
-29 -15 -28 -19 2 -3 10 -18 17 -33 16 -32 28 -34 59 -13 20 15 24 14 49 -10
28 -25 28 -26 11 -55 l-17 -31 35 -17 c34 -16 37 -16 50 2 7 10 15 23 16 28 2
5 18 6 36 2 28 -6 32 -10 32 -40 0 -34 1 -34 45 -34 45 0 45 0 45 34 0 29 5
36 30 44 27 10 31 8 51 -19 l21 -29 31 22 c18 12 33 22 35 23 1 1 -5 16 -15
33 -18 31 -18 32 4 54 19 19 26 20 48 10 36 -17 38 -16 58 17 22 37 22 36 -13
51 -28 12 -30 16 -24 44 9 43 12 46 45 46 27 0 29 2 29 40 0 39 -1 40 -35 40
-29 0 -36 4 -41 25 -8 33 1 56 26 62 25 7 25 10 0 51 l-20 33 -28 -19 -27 -20
-28 24 c-27 23 -27 25 -12 54 15 30 15 30 -17 50 -35 21 -40 19 -66 -27 -5 -9
-17 -10 -37 -5 -24 7 -31 14 -33 40 -3 30 -5 32 -45 32 -41 0 -42 -1 -42 -32z
m131 -242 c27 -27 34 -42 34 -72 0 -88 -76 -143 -152 -111 -87 36 -89 173 -3
208 46 18 86 10 121 -25z"/>
</g>
</svg>
